<svg width="30" height="26" viewBox="0 0 30 26" fill="none" xmlns="http://www.w3.org/2000/svg">
<path d="M19.2926 5.07317C20.6617 5.07317 21.7819 3.93171 21.7819 2.53659C21.7819 1.14146 20.6617 0 19.2926 0C17.9234 0 16.8032 1.14146 16.8032 2.53659C16.8032 3.93171 17.9234 5.07317 19.2926 5.07317ZM6.2234 13.3171C2.7383 13.3171 0 16.1073 0 19.6585C0 23.2098 2.7383 26 6.2234 26C9.70851 26 12.4468 23.2098 12.4468 19.6585C12.4468 16.1073 9.70851 13.3171 6.2234 13.3171ZM6.2234 24.0976C3.85851 24.0976 1.86702 22.0683 1.86702 19.6585C1.86702 17.2488 3.85851 15.2195 6.2234 15.2195C8.5883 15.2195 10.5798 17.2488 10.5798 19.6585C10.5798 22.0683 8.5883 24.0976 6.2234 24.0976ZM13.4426 11.4146L16.4298 8.37073L17.4255 9.38537C19.0436 11.0341 21.1596 12.0488 23.7734 12.0488V9.51219C21.9064 9.51219 20.4128 8.75122 19.2926 7.60976L16.9277 5.2C16.3053 4.69268 15.683 4.43902 14.9362 4.43902C14.1894 4.43902 13.567 4.69268 13.1936 5.2L9.70851 8.75122C9.21064 9.25854 8.9617 9.89268 8.9617 10.5268C8.9617 11.2878 9.21064 11.922 9.70851 12.3024L13.6915 15.8537V22.1951H16.1809V14.3317L13.4426 11.4146ZM23.6489 13.3171C20.1638 13.3171 17.4255 16.1073 17.4255 19.6585C17.4255 23.2098 20.1638 26 23.6489 26C27.134 26 29.8723 23.2098 29.8723 19.6585C29.8723 16.1073 27.134 13.3171 23.6489 13.3171ZM23.6489 24.0976C21.284 24.0976 19.2926 22.0683 19.2926 19.6585C19.2926 17.2488 21.284 15.2195 23.6489 15.2195C26.0138 15.2195 28.0053 17.2488 28.0053 19.6585C28.0053 22.0683 26.0138 24.0976 23.6489 24.0976Z" fill="white"/>
</svg>
