<svg width="51" height="23" viewBox="0 0 51 23" fill="none" xmlns="http://www.w3.org/2000/svg">
<path d="M1.48146 13.6159H1.60841L1.62624 13.2696C1.68837 12.0071 1.61706 10.7348 1.67594 9.80506C1.72457 9.04061 1.86665 8.50847 1.87475 8.40582C1.88718 8.24105 2.2929 4.36641 3.58139 2.88884C4.91039 1.36535 4.85204 0.575516 5.08327 0.403718C5.76289 -0.10087 31.9848 -0.268346 35.1117 0.714359C37.3942 1.4318 41.5109 6.6214 41.5109 6.6214C41.5109 6.6214 46.3628 7.70188 48.6356 9.30749C49.0997 9.63488 50.1878 12.2367 50.2234 14.4744C50.2288 14.8477 50.6556 14.7013 50.8047 15.0573C50.9538 15.4133 50.7945 16.7775 50.7539 17.0676C50.6356 17.9044 49.735 17.9628 49.735 17.9628H48.4552C48.4601 18.0416 48.4628 18.121 48.4628 18.2015C48.4628 19.2944 48.0286 20.3424 47.2559 21.1151C46.4832 21.8879 45.4351 22.322 44.3423 22.322C43.2495 22.322 42.2014 21.8879 41.4287 21.1151C40.656 20.3424 40.2219 19.2944 40.2219 18.2015C40.2219 18.1216 40.2219 18.0395 40.2294 17.9633H38.4563H25.8514H25.3446H23.9632L12.4165 17.9422C12.422 18.0281 12.4252 18.1146 12.4252 18.2021C12.4128 19.2866 11.9732 20.3226 11.2019 21.0851C10.4305 21.8477 9.38965 22.2753 8.30502 22.2753C7.22038 22.2753 6.17948 21.8477 5.40815 21.0851C4.63682 20.3226 4.19726 19.2866 4.18484 18.2021C4.18484 18.1092 4.18862 18.0179 4.19456 17.9266L1.27238 17.9212C1.27238 17.9212 1.29021 17.7429 1.31938 17.4349C1.18963 17.3998 1.07505 17.323 0.993324 17.2162C0.911598 17.1095 0.867272 16.9789 0.867195 16.8444V14.2313C0.866838 14.1505 0.882477 14.0704 0.913207 13.9956C0.943936 13.9209 0.989151 13.853 1.04625 13.7958C1.10334 13.7386 1.17119 13.6932 1.24588 13.6624C1.32058 13.6315 1.40064 13.6157 1.48146 13.6159Z" fill="white"/>
</svg>
