<svg width="50" height="23" viewBox="0 0 50 23" fill="none" xmlns="http://www.w3.org/2000/svg">
<path d="M0.533344 12.5477C0.621221 10.6401 0.791564 8.79807 1.11941 8.04031C1.44117 7.29674 2.08673 6.67755 2.86139 6.01239C5.95194 3.35176 7.59996 1.97751 7.80207 1.75715C8.18062 1.34548 8.13465 0.823629 8.60783 0.699926C9.64072 0.429537 14.7058 0.174021 17.6733 0.057078C22.5518 -0.135574 24.4871 0.183484 26.1047 0.65396C28.4077 1.32385 36.4599 6.2598 36.4599 6.2598C36.4599 6.2598 44.6743 8.2796 46.4954 9.33547C47.2951 9.79851 47.8872 10.463 48.1035 10.8949C48.5976 11.9024 48.967 12.9663 49.2033 14.0632C49.5413 14.1342 49.7881 14.3431 49.8077 14.7345L49.9996 17.3505C50.0098 17.5472 49.8083 17.7223 49.6049 17.7953C49.6049 18.017 49.5961 18.1407 49.5961 18.1407H46.657C46.4099 19.2944 45.7747 20.3286 44.8572 21.0704C43.9397 21.8123 42.7955 22.217 41.6156 22.217C40.4356 22.217 39.2914 21.8123 38.3739 21.0704C37.4564 20.3286 36.8212 19.2944 36.5742 18.1407H16.9338V18.2265C16.9338 18.2265 16.9284 18.1968 16.9176 18.1407H13.8838C13.6368 19.2944 13.0015 20.3286 12.084 21.0704C11.1665 21.8123 10.0223 22.217 8.84239 22.217C7.66249 22.217 6.51828 21.8123 5.60078 21.0704C4.68328 20.3286 4.048 19.2944 3.801 18.1407H0.452903C0.452903 18.1407 0.449522 17.9555 0.447494 17.6364C0.315258 17.5824 0.202098 17.4902 0.12241 17.3716C0.0427217 17.253 0.000109517 17.1134 1.21072e-06 16.9706V13.2419C1.3101e-05 13.0836 0.0523015 12.9297 0.148745 12.8042C0.245188 12.6787 0.380389 12.5885 0.533344 12.5477Z" fill="white"/>
</svg>
