<svg width="50" height="19" viewBox="0 0 50 19" fill="none" xmlns="http://www.w3.org/2000/svg">
<path d="M0.00771897 9.81948C0.250342 6.79934 1.46288 6.79934 4.25191 6.79934H42.8096C42.8096 6.79934 52.9764 6.17522 49.1315 12.1985C47.8443 14.2127 44.2334 18.0328 38.4156 18.0328H9.2234C5.34542 18.0334 -0.236043 12.8396 0.00771897 9.81948Z" fill="white"/>
<path d="M35.4719 6.25931L7.82403 5.89372C7.82403 5.89372 11.2091 0.162485 13.5917 0.162485C15.9742 0.162485 23.5705 -0.203106 26.6858 0.162485C27.9257 0.308263 29.5727 1.30575 31.1053 2.45303L48.3616 1.51925L48.4351 2.90184L32.729 3.75125C34.3003 5.07473 35.4719 6.25931 35.4719 6.25931Z" fill="white"/>
</svg>
