<svg width="50" height="29" viewBox="0 0 50 29" fill="none" xmlns="http://www.w3.org/2000/svg">
<path d="M40.7223 28.2939C36.7132 28.2939 33.4632 25.0439 33.4632 21.0348C33.4632 17.0257 36.7132 13.7757 40.7223 13.7757C44.7314 13.7757 47.9814 17.0257 47.9814 21.0348C47.9814 25.0439 44.7314 28.2939 40.7223 28.2939Z" fill="white"/>
<path d="M8.34489 28.2939C4.3358 28.2939 1.08578 25.0439 1.08578 21.0348C1.08578 17.0257 4.3358 13.7757 8.34489 13.7757C12.354 13.7757 15.604 17.0257 15.604 21.0348C15.604 25.0439 12.354 28.2939 8.34489 28.2939Z" fill="white"/>
<path d="M48.9129 18.2191H42.8676L35.249 20.0058H14.1625L5.6503 17.6361H0.997366C0.476692 17.6361 0.116095 15.0608 0.00376007 14.1616C-0.00484222 14.0924 0.00136532 14.0222 0.0219673 13.9556C0.0425692 13.889 0.0770931 13.8276 0.123254 13.7754C0.169414 13.7232 0.226153 13.6814 0.289703 13.6528C0.353253 13.6241 0.422163 13.6094 0.491857 13.6094H1.08555V8.35607C1.08555 8.21038 1.14342 8.07066 1.24644 7.96764C1.34946 7.86462 1.48918 7.80675 1.63487 7.80675H17.7499V3.11113C17.7499 3.0121 17.7695 2.91403 17.8074 2.82255C17.8453 2.73106 17.9009 2.64794 17.9709 2.57794C18.041 2.50794 18.1241 2.45243 18.2156 2.41458C18.3072 2.37673 18.4052 2.35729 18.5043 2.35736H29.5867C30.0352 2.35719 30.4685 2.52031 30.8055 2.81625L36.1235 7.48378C36.1235 7.48378 48.3074 8.36506 48.3074 9.1851C48.3074 10.0052 48.6399 13.2342 48.6399 13.2342C48.6399 13.2342 49.9615 13.2601 49.998 13.7762C50.0346 14.2924 49.556 18.2191 48.9129 18.2191Z" fill="white"/>
<path d="M17.6658 0C17.6658 0 16.133 0.0477424 16.133 0.862174C16.133 1.6766 17.6731 1.67829 17.6731 1.67829C17.7435 1.39484 17.7892 1.10579 17.8096 0.814431C17.8183 0.535947 17.7693 0.258671 17.6658 0Z" fill="white"/>
<path d="M16.6683 1.24243H17.3867V9.19409H16.6683V1.24243Z" fill="white"/>
<path d="M17.2285 6.84066V5.50555H12.6104L11.0652 6.84066H17.2285Z" fill="white"/>
<path d="M16.8293 1.44021L17.3052 1.97833L8.08559 10.1323L7.60967 9.59414L16.8293 1.44021Z" fill="white"/>
</svg>
