<svg width="50" height="22" viewBox="0 0 50 22" fill="none" xmlns="http://www.w3.org/2000/svg">
<path d="M6.14913 0.837075C7.88856 1.83096 10.1317 7.04223 12.3678 7.04223C14.6038 7.04223 19.4714 7.0697 19.3589 6.89301C19.2463 6.71632 22.5527 4.56534 25.3103 3.87636C25.5796 3.80956 25.863 3.75838 26.1587 3.71206C22.9735 3.52729 20.3786 3.24663 20.1685 3.18145C19.5926 3.00206 19.3023 2.76558 20.9922 2.26244C22.682 1.75931 38.1532 -0.813468 38.6956 2.17087C38.8335 2.92826 37.7448 3.37753 36.035 3.62533C38.5518 3.77993 42.2531 7.48934 42.2531 7.48934C42.2531 7.48934 46.5088 7.58038 46.7167 7.67249C47.0329 7.81148 47.2381 8.08298 47.3723 8.46975V3.48688C47.3723 3.35598 47.494 3.24932 47.6416 3.24932H48.1685C48.3171 3.24932 48.4378 3.35706 48.4378 3.48688V9.29772C48.4378 9.29772 50 10.0627 50 11.0102C50 11.9578 48.4378 12.7222 48.4378 12.7222V18.5346C48.4378 18.6655 48.3166 18.7722 48.1685 18.7722H47.6427C47.494 18.7722 47.3734 18.6644 47.3734 18.5346V14.0349C47.1261 14.7352 46.6348 15.2201 45.656 15.2896C45.1227 15.3289 44.4267 15.3666 43.6004 15.4021L43.3063 16.9929C44.4914 17.05 44.9654 17.5014 44.9654 18.0498C44.9654 18.3358 44.8361 18.5949 44.5452 18.7856C44.5669 18.9002 44.5779 19.0165 44.5781 19.1331C44.5781 19.6211 44.3842 20.0892 44.0391 20.4343C43.694 20.7794 43.226 20.9733 42.7379 20.9733C42.2499 20.9733 41.7818 20.7794 41.4367 20.4343C41.0917 20.0892 40.8978 19.6211 40.8978 19.1331C40.8978 18.9983 40.9128 18.8638 40.9425 18.7323C40.3779 18.5265 39.9815 18.2701 39.9815 18.0498C39.9815 17.6996 40.9818 17.2585 42.07 17.0742L41.6422 15.4749C40.9748 15.4964 39.5037 15.5363 39.5037 15.5363C39.5037 15.5363 37.5321 16.2937 35.8977 16.3896C34.2633 16.4854 31.5715 16.5754 31.5715 16.5754L31.2219 17.7826C32.0218 17.9318 32.3531 18.3213 32.3531 18.7808C32.3541 18.9153 32.3228 19.048 32.2617 19.1678C32.2007 19.2876 32.1118 19.391 32.0024 19.4692C32.0193 19.5693 32.0278 19.6705 32.0277 19.772C32.0277 20.26 31.8339 20.7281 31.4888 21.0732C31.1437 21.4183 30.6756 21.6121 30.1876 21.6121C29.6995 21.6121 29.2315 21.4183 28.8864 21.0732C28.5413 20.7281 28.3474 20.26 28.3474 19.772C28.3476 19.6733 28.3556 19.5748 28.3711 19.4773C27.785 19.2688 27.3697 19.006 27.3697 18.7786C27.3697 18.4554 28.2251 18.053 29.2147 17.8489L28.6351 16.4634C26.4528 16.3777 25.1546 16.0981 21.2884 15.6688C17.4223 15.2395 6.52244 12.3941 5.03081 11.0274C3.53918 9.66079 0 0.0107268 0 0.0107268C0 0.0107268 4.40917 -0.157344 6.14913 0.837075Z" fill="white"/>
</svg>
