<svg width="51" height="22" viewBox="0 0 51 22" fill="none" xmlns="http://www.w3.org/2000/svg">
<path d="M2.05238 12.9484C2.03537 12.7979 2.59083 8.10101 3.0233 6.97699C3.5925 5.49576 5.8752 5.68026 5.8752 5.68026V1.87575C5.87537 1.37833 6.07305 0.901322 6.42479 0.549587C6.77652 0.197853 7.25352 0.00017341 7.75095 0H34.1424L33.2264 0.91596L33.3749 6.19712C33.3749 6.19712 45.832 6.14805 46.2592 6.62239C46.3456 6.71725 46.4201 7.52264 46.4764 8.4072C47.289 8.32345 48.0931 8.36402 48.1775 8.41963C48.3895 8.56618 48.7447 10.8338 48.4555 10.9915C48.3901 11.0262 48.2161 11.0452 47.9779 11.0569C48.4068 11.1804 48.8218 11.3477 49.2164 11.5561C50.7984 12.3818 51.1975 13.3174 50.6107 13.3881C50.3293 13.4234 49.747 13.3383 48.7643 13.2657C49.4052 13.8585 49.8795 14.6089 50.1401 15.442C50.4008 16.2752 50.4386 17.1621 50.2499 18.0144C50.0611 18.8667 49.6524 19.6548 49.0644 20.3C48.4763 20.9452 47.7296 21.4252 46.8984 21.692C46.0672 21.9589 45.1806 22.0033 44.3269 21.8209C43.4732 21.6386 42.6821 21.2357 42.0325 20.6526C41.3829 20.0694 40.8974 19.3262 40.6244 18.497C40.3513 17.6679 40.3002 16.7816 40.4762 15.9266C39.4602 17.012 38.2818 18.013 36.4938 18.013H12.2863C12.0235 19.2076 11.3319 20.2644 10.3423 20.9834C9.35269 21.7023 8.13383 22.0334 6.9165 21.914C5.69917 21.7946 4.56787 21.233 3.7368 20.3355C2.90574 19.438 2.4326 18.2669 2.40698 17.044C1.82339 16.9603 1.14165 16.7908 0.931634 16.45C0.543005 15.818 2.05238 12.9484 2.05238 12.9484Z" fill="white"/>
</svg>
