<svg width="51" height="16" viewBox="0 0 51 16" fill="none" xmlns="http://www.w3.org/2000/svg">
<path d="M2.49948 9.42706C1.59354 8.11343 1.92297 4.17253 1.92297 4.17253L0.19287 3.43395L0.522301 2.69655C0.522301 2.69655 1.92297 3.35307 4.80608 3.5172C5.34348 3.5479 6.83718 3.61638 8.93049 3.71203C9.5538 3.40856 10.9503 2.77566 13.6166 1.79324C18.9692 -0.176319 25.8902 0.00434117 25.8902 0.00434117V0.824991C25.8902 0.824991 25.3315 0.824992 24.9713 1.00506L24.9316 1.02395C25.4694 0.976633 26.0094 0.959485 26.5491 0.97259C29.7184 1.09893 34.8032 3.89977 36.9771 5.18447C39.0005 5.33325 40.4391 5.47495 40.9647 5.59303C43.8472 6.25014 46.9803 9.34558 47.5568 10.4124C47.9007 11.0382 48.0173 11.7631 47.8869 12.4646L50.1929 12.5467V12.96C50.1929 12.96 47.7962 12.9765 44.102 12.993C43.7035 13.668 43.1355 14.228 42.454 14.618C41.7725 15.0079 41.0008 15.2143 40.2149 15.217C39.429 15.2196 38.6559 15.0183 37.9718 14.6329C37.2876 14.2475 36.7159 13.6913 36.3129 13.019C28.8919 13.035 19.9753 13.0261 13.4945 12.9322C13.0873 13.6475 12.4916 14.2382 11.7719 14.6405C11.0521 15.0429 10.2357 15.2416 9.41088 15.215C8.58604 15.1885 7.78417 14.9379 7.09193 14.4902C6.3997 14.0425 5.84345 13.4147 5.48331 12.6748C5.24716 12.6587 5.01226 12.6277 4.78001 12.5821C3.40897 12.2586 2.20915 10.1025 2.20915 10.1025L3.77217 10.7135C3.49547 10.5577 3.04162 10.2129 2.49948 9.42706Z" fill="white"/>
</svg>
