<svg width="51" height="23" viewBox="0 0 51 23" fill="none" xmlns="http://www.w3.org/2000/svg">
<path d="M1.55477 12.7938H1.69678L1.71672 12.4064C1.78622 10.9942 1.70645 9.57106 1.77232 8.53106C1.82671 7.67598 1.98564 7.08074 1.9947 6.96593C2.01706 6.66861 1.93427 6.29757 2.09743 5.95795C2.16813 5.80809 2.36876 5.84858 2.46001 5.69448C3.64746 3.70029 6.40608 1.3955 6.62303 1.15378C7.25512 0.448559 6.18068 0.472731 6.55354 0.307757C7.0122 0.1029 26.5794 -0.425258 30.0771 0.673963C32.6309 1.47647 39.1923 6.78947 39.1923 6.78947C39.1923 6.78947 46.8881 7.73882 48.6194 8.51474C49.1995 8.77399 50.3024 11.3048 50.3417 13.8078C50.3483 14.2248 50.6311 14.0102 50.7979 14.4085C50.9647 14.8067 50.7864 16.3326 50.7375 16.6571C50.6057 17.5931 49.5978 17.6584 49.5978 17.6584H48.1662C48.1716 17.7466 48.1746 17.8355 48.1746 17.9255C48.1746 19.1479 47.6891 20.3202 46.8247 21.1845C45.9603 22.0489 44.788 22.5345 43.5657 22.5345C42.3433 22.5345 41.171 22.0489 40.3066 21.1845C39.4422 20.3202 38.9567 19.1479 38.9567 17.9255C38.9567 17.8361 38.9603 17.7442 38.9651 17.659H36.98H23.5029H22.3167H20.7715L13.7864 17.6421C13.7924 17.7364 13.7961 17.8306 13.7961 17.9261C13.7961 19.1485 13.3105 20.3208 12.4461 21.1851C11.5818 22.0495 10.4094 22.5351 9.18707 22.5351C7.96469 22.5351 6.79237 22.0495 5.92802 21.1851C5.06367 20.3208 4.57808 19.1485 4.57808 17.9261C4.57808 17.8228 4.58292 17.7212 4.58956 17.6197L1.3203 17.6119C1.3203 17.6119 1.34085 17.4124 1.37348 17.068C1.22835 17.0287 1.10018 16.9427 1.00876 16.8234C0.917346 16.704 0.867769 16.5579 0.867682 16.4075V13.4821C0.867283 13.3917 0.884773 13.3021 0.919146 13.2185C0.953519 13.1349 1.0041 13.0589 1.06796 12.9949C1.13183 12.9309 1.20772 12.8802 1.29127 12.8457C1.37482 12.8112 1.46437 12.7935 1.55477 12.7938Z" fill="white"/>
</svg>
