<svg width="51" height="17" viewBox="0 0 51 17" fill="none" xmlns="http://www.w3.org/2000/svg">
<path d="M39.0144 0V8.76173H45.7273V5.40913H46.3343V8.76173H50.8677V10.5272H46.3343V14.167H45.7273V10.5272H22.2631C22.3524 11.2136 22.2944 11.9111 22.093 12.5732C21.8916 13.2354 21.5515 13.8469 21.0953 14.367C20.639 14.887 20.0772 15.3037 19.4474 15.5891C18.8175 15.8746 18.1341 16.0222 17.4427 16.0222C16.7513 16.0222 16.0679 15.8746 15.4381 15.5891C14.8082 15.3037 14.2464 14.887 13.7902 14.367C13.334 13.8469 12.9938 13.2354 12.7925 12.5732C12.5911 11.9111 12.5331 11.2136 12.6224 10.5272H0.867677V0H39.0144Z" fill="white"/>
</svg>
