<svg width="51" height="20" viewBox="0 0 51 20" fill="none" xmlns="http://www.w3.org/2000/svg">
<path d="M0.659681 12.4055H1.00935C1.04879 10.2822 1.37255 5.49579 2.48101 5.42633C4.44009 5.30624 8.17104 5.18851 8.17104 5.18851C8.17104 5.18851 12.6196 0.570436 14.1107 0.283757C17.1076 -0.291957 27.5322 0.113632 29.5731 0.570436C31.614 1.02724 37.5107 5.81779 37.5107 5.81779C37.5107 5.81779 46.6821 7.32831 47.9259 8.11771C48.5682 8.52506 49.1033 10.3199 49.0956 12.4055H50.1929V15.5449H48.9896C48.9661 15.9328 48.9478 16.1653 48.9478 16.1653H46.3883C46.1732 17.1701 45.62 18.0706 44.821 18.7167C44.022 19.3627 43.0256 19.7152 41.9981 19.7152C40.9706 19.7152 39.9741 19.3627 39.1751 18.7167C38.3761 18.0706 37.8229 17.1701 37.6078 16.1653H12.7191C12.504 17.1701 11.9507 18.0706 11.1517 18.7167C10.3527 19.3627 9.35632 19.7152 8.32881 19.7152C7.3013 19.7152 6.30487 19.3627 5.50587 18.7167C4.70688 18.0706 4.15365 17.1701 3.93854 16.1653H2.65408C2.65408 16.1653 1.01582 15.9334 1.00935 15.5449H0.659681C0.535875 15.5449 0.41714 15.4957 0.329596 15.4082C0.242052 15.3206 0.192871 15.2019 0.192871 15.0781V12.8724C0.192871 12.7485 0.242052 12.6298 0.329596 12.5423C0.41714 12.4547 0.535875 12.4055 0.659681 12.4055Z" fill="white"/>
</svg>
