<svg width="34" height="26" viewBox="0 0 34 26" fill="none" xmlns="http://www.w3.org/2000/svg">
<path d="M33.1953 19.8596C33.1953 19.8596 30.5324 24.4158 25.4437 24.4158H1.59762L-0.000122041 20.747C-0.000122041 20.747 17.3372 20.9836 24.2011 20.5696C30.7893 20.172 33.1953 19.8596 33.1953 19.8596Z" fill="white"/>
<path d="M13.2538 22.3447C13.3214 22.3447 13.3863 22.3178 13.4341 22.27C13.4819 22.2222 13.5088 22.1573 13.5088 22.0897L13.2676 0.255038C13.2675 0.187428 13.2406 0.122616 13.1928 0.0748086C13.145 0.0270012 13.0802 9.92075e-05 13.0126 0C12.945 0 12.8801 0.0268701 12.8323 0.074699C12.7844 0.122528 12.7576 0.187398 12.7576 0.255038L12.9987 22.0897C12.9987 22.1232 13.0052 22.1564 13.018 22.1873C13.0308 22.2183 13.0496 22.2464 13.0733 22.2701C13.097 22.2938 13.1251 22.3126 13.1561 22.3254C13.1871 22.3382 13.2202 22.3447 13.2538 22.3447Z" fill="white"/>
<path d="M12.4932 1.3667C12.4932 1.3667 11.5699 5.4038 8.74982 10.419C5.92977 15.4343 3.50354 17.6756 3.50354 17.6756C3.50354 17.6756 6.81716 18.6815 9.24189 18.7408C11.6666 18.8 12.7329 18.7408 12.7329 18.7408L12.4932 1.3667Z" fill="white"/>
<path d="M13.5311 0.659332C13.5311 0.659332 18.7383 4.80145 20.3361 7.99655C21.9338 11.1916 22.5298 17.1479 22.5298 17.1479C22.5298 17.1479 21.3266 17.4821 18.9206 17.7986C16.6703 18.0945 13.8908 18.1538 13.8908 18.1538L13.5311 0.659332Z" fill="white"/>
<path d="M16.3267 0.769257C16.3267 0.769257 21.0607 4.74485 23.8357 8.24375C26.6723 11.821 28.7568 17.7293 28.7568 17.7293C28.7568 17.7293 27.8695 18.2619 25.3251 18.4393C23.7296 18.5459 22.1295 18.5657 20.5319 18.4985L16.3267 0.769257Z" fill="white"/>
<path d="M30.1777 20.2737C30.1777 20.2737 28.8167 19.327 28.2248 19.0903C27.633 18.8537 23.3138 18.7352 20.7102 18.7352C18.1066 18.7352 14.2011 18.5578 14.2011 18.5578C14.2011 18.5578 13.6599 19.3983 12.2486 19.6829C10.8372 19.9676 1.24256 19.6241 1.24256 19.6241L0.829995 20.7492C0.829995 20.7492 15.6229 22.347 16.6288 22.287C17.6347 22.2269 30.1777 20.2737 30.1777 20.2737Z" fill="white"/>
<path d="M0.725207 21.7424L0.21363 25.9805C0.631066 26.0371 1.05593 25.9699 1.43556 25.7873C1.81287 25.6066 1.96289 24.3404 1.96289 24.3404L0.725207 21.7424Z" fill="white"/>
</svg>
