<svg width="50" height="27" viewBox="0 0 50 27" fill="none" xmlns="http://www.w3.org/2000/svg">
<path d="M0.00163708 0H29.7776V17.0191H30.5783V4.8052H37.5864C38.9192 4.8052 40.3896 10.809 40.3896 10.809C40.3896 10.809 48.8991 12.3137 49.2992 12.7138C49.6993 13.1139 49.2992 18.5206 49.2992 18.5206H50V21.7238H47.6804C47.6864 21.8128 47.6902 21.9023 47.6902 21.9924C47.6776 23.0903 47.2327 24.1389 46.4519 24.9108C45.6711 25.6827 44.6174 26.1157 43.5195 26.1157C42.4215 26.1157 41.3678 25.6827 40.5871 24.9108C39.8063 24.1389 39.3613 23.0903 39.3488 21.9924C39.3488 21.9023 39.3531 21.8128 39.3586 21.7238H19.735C19.741 21.8128 19.7448 21.9023 19.7448 21.9924C19.7448 22.5401 19.6369 23.0824 19.4273 23.5883C19.2177 24.0943 18.9106 24.5541 18.5233 24.9413C18.136 25.3286 17.6763 25.6358 17.1703 25.8454C16.6643 26.055 16.122 26.1628 15.5743 26.1628C15.0267 26.1628 14.4844 26.055 13.9784 25.8454C13.4724 25.6358 13.0127 25.3286 12.6254 24.9413C12.2381 24.5541 11.9309 24.0943 11.7214 23.5883C11.5118 23.0824 11.4039 22.5401 11.4039 21.9924C11.4039 21.9023 11.4077 21.8128 11.4132 21.7238H10.3876C10.3931 21.8128 10.3975 21.9023 10.3975 21.9924C10.3849 23.0903 9.93995 24.1389 9.15915 24.9108C8.37836 25.6827 7.32468 26.1157 6.22673 26.1157C5.12878 26.1157 4.07512 25.6827 3.29432 24.9108C2.51352 24.1389 2.06858 23.0903 2.05602 21.9924C2.05602 21.9023 2.05984 21.8128 2.06585 21.7238H0.773396V19.038H1.42001e-06L0.00163708 0Z" fill="white"/>
</svg>
