<svg width="50" height="22" viewBox="0 0 50 22" fill="none" xmlns="http://www.w3.org/2000/svg">
<path d="M0.352126 13.1378C0.212456 11.903 0.150815 10.5935 0.296387 9.50764C0.304033 9.42708 0.315854 9.34698 0.331799 9.26764C0.521304 8.10635 0.764579 8.27618 0.700318 7.12341C0.634745 5.91556 0.721299 5.6972 1.89505 5.77523C3.09788 5.85459 4.30434 5.86269 5.50812 5.79949C5.50812 5.79949 11.9159 1.28808 15.2044 0.427105C18.4929 -0.433868 24.8075 0.190386 27.0777 0.698576C29.3478 1.20677 36.7949 5.79949 36.7949 5.79949C36.7949 5.79949 45.9751 7.73061 47.1784 8.33323C48.7666 9.12732 49.2184 10.0021 49.4656 12.4545C49.4885 12.6833 49.5082 12.9135 49.5246 13.1378H50V16.6348H49.5712C49.5541 17.0675 49.5344 17.3259 49.5344 17.3259H46.6833C46.4437 18.4451 45.8275 19.4483 44.9374 20.1679C44.0474 20.8876 42.9375 21.2802 41.7929 21.2802C40.6483 21.2802 39.5384 20.8876 38.6484 20.1679C37.7583 19.4483 37.1421 18.4451 36.9025 17.3259H12.7566C12.5169 18.4451 11.9007 19.4483 11.0107 20.1679C10.1206 20.8876 9.01069 21.2802 7.86612 21.2802C6.72155 21.2802 5.61162 20.8876 4.72159 20.1679C3.83156 19.4483 3.21531 18.4451 2.9757 17.3259H1.10425C1.10425 17.3259 1.03868 17.0682 0.943595 16.6341H0.927202C0.927202 16.6341 0.319996 16.5384 0.319996 16.0059L-2.52707e-07 13.6577C-2.52707e-07 13.126 0.352126 13.1378 0.352126 13.1378Z" fill="white"/>
</svg>
