<svg width="51" height="20" viewBox="0 0 51 20" fill="none" xmlns="http://www.w3.org/2000/svg">
<path d="M3.40986 5.27491L0.867187 0H3.98071L9.06116 7.14379H26.7008C26.7008 7.14379 26.7008 5.73028 29.2925 5.73028H33.7673V3.79223H18.4666C18.3708 3.78855 18.2803 3.74795 18.2139 3.67894C18.1475 3.60993 18.1104 3.51788 18.1104 3.4221C18.1104 3.32632 18.1475 3.23427 18.2139 3.16526C18.2803 3.09625 18.3708 3.05564 18.4666 3.05197H50.4826C50.5324 3.05006 50.5821 3.05822 50.6286 3.07596C50.6752 3.0937 50.7177 3.12066 50.7536 3.15521C50.7895 3.18977 50.8181 3.23122 50.8376 3.27708C50.8571 3.32294 50.8672 3.37226 50.8672 3.4221C50.8672 3.47194 50.8571 3.52126 50.8376 3.56712C50.8181 3.61298 50.7895 3.65443 50.7536 3.68898C50.7177 3.72354 50.6752 3.7505 50.6286 3.76824C50.5821 3.78598 50.5324 3.79414 50.4826 3.79223H35.1835V5.73028H38.2447C41.3446 5.73028 44.6052 9.73548 44.6052 9.73548C44.6052 9.73548 47.941 10.1478 49.001 12.1507C50.1253 14.275 46.9611 16.803 43.6629 16.803H42.1557L43.7506 18.8533H45.8461C48.0597 18.8533 49.9041 17.4779 49.9041 17.4779C49.9041 17.4779 48.0597 19.63 45.2562 19.63H23.468C23.365 19.63 23.2662 19.5891 23.1934 19.5163C23.1206 19.4434 23.0796 19.3447 23.0796 19.2416C23.0796 19.1386 23.1206 19.0399 23.1934 18.967C23.2662 18.8942 23.365 18.8533 23.468 18.8533H26.8234L28.1476 16.2997C26.3408 15.3666 25.5504 13.4623 25.5504 13.4623L8.85962 9.62436L6.10941 13.0985H2.99861L3.86306 11.3641C3.27911 11.1211 2.77392 10.721 2.40355 10.2083C2.03318 9.69561 1.81212 9.09029 1.76489 8.45956C1.71767 7.82882 1.84613 7.19734 2.13602 6.63518C2.42591 6.07302 2.86589 5.60218 3.40714 5.27491H3.40986ZM27.9684 18.8533H42.2243L40.7052 16.803H30.2349C29.8274 16.804 29.4216 16.7503 29.0284 16.6434L27.9684 18.8533Z" fill="white"/>
</svg>
