<svg width="41" height="26" viewBox="0 0 41 26" fill="none" xmlns="http://www.w3.org/2000/svg">
<path d="M32.9155 21.4807C32.8663 22.3444 32.0418 23.4786 30.8191 24.3689C29.3805 25.4202 27.6321 25.9961 25.9002 25.9961H6.19732C5.08353 25.9961 3.57691 25.1258 2.26891 23.7276C0.940997 22.3051 0.125988 20.679 0.199577 19.5851C0.360586 17.176 2.82221 12.3618 5.6313 12.3618C10.0925 12.3618 28.6302 17.2895 28.8145 17.3415L28.8316 17.3453C29.5875 17.5067 30.313 17.7868 30.9812 18.1753C32.3462 18.9825 32.9974 20.0969 32.9155 21.4807Z" fill="white"/>
<path d="M31.1952 17.7824C30.4882 17.3707 29.7197 17.075 28.919 16.9066C28.6932 16.8462 24.0859 15.6229 19.0028 14.4167C12.0312 12.7568 7.52793 11.9186 5.62736 11.9186C4.26348 11.9186 2.99587 12.8924 1.98943 14.2054V9.76348H2.98536V0H15.6509L16.7453 9.76348H22.9196V5.14511H24.0184V9.76348H31.2666V17.825C31.2423 17.8106 31.2196 17.7963 31.1952 17.7824Z" fill="white"/>
<path d="M33.3573 21.5067C33.4126 20.5982 33.1741 19.7782 32.6634 19.0749H34.1507C34.3167 16.7577 34.9845 15.0685 34.9845 15.0685H36.3235C36.3235 15.0685 35.8543 17.306 36.7949 20.9058C37.761 24.6085 40.8672 26 40.8672 26H35.384C35.384 26 34.6952 24.6671 34.3327 22.5541H33.0436C33.2295 22.1894 33.3379 21.8331 33.3573 21.5067Z" fill="white"/>
</svg>
