<svg width="46" height="26" viewBox="0 0 46 26" fill="none" xmlns="http://www.w3.org/2000/svg">
<path d="M38.9014 26.0002C35.4267 26.0002 32.6099 23.1834 32.6099 19.7087C32.6099 16.234 35.4267 13.4172 38.9014 13.4172C42.3761 13.4172 45.1929 16.234 45.1929 19.7087C45.1929 23.1834 42.3761 26.0002 38.9014 26.0002Z" fill="white"/>
<path d="M7.15873 26.0002C3.68404 26.0002 0.867255 23.1834 0.867255 19.7087C0.867255 16.234 3.68404 13.4172 7.15873 13.4172C10.6334 13.4172 13.4502 16.234 13.4502 19.7087C13.4502 23.1834 10.6334 26.0002 7.15873 26.0002Z" fill="white"/>
<path d="M8.72644 21.1775L7.14941 19.9955L13.1892 11.9366L14.7663 13.1185L8.72644 21.1775Z" fill="white"/>
<path d="M37.6396 6.12167H35.9186C35.424 6.12167 34.9498 6.31813 34.6001 6.66782C34.2504 7.01751 34.0539 7.4918 34.0539 7.98634C34.0539 8.23121 34.1022 8.47368 34.1959 8.69991C34.2896 8.92614 34.4269 9.1317 34.6001 9.30485C34.7732 9.478 34.9788 9.61535 35.205 9.70906C35.4312 9.80277 35.6737 9.851 35.9186 9.851H37.6396V6.12167Z" fill="white"/>
<path d="M21.5479 11.1657C21.9434 12.8323 28.9755 12.3619 30.6442 11.9664C31.0435 11.8755 31.4209 11.7065 31.7545 11.4689C32.0881 11.2314 32.3714 10.9301 32.5879 10.5825C32.8044 10.2349 32.9499 9.84779 33.016 9.44363C33.0821 9.03946 33.0675 8.6262 32.9729 8.22772C32.8784 7.82924 32.7059 7.45343 32.4653 7.122C32.2248 6.79057 31.9209 6.51008 31.5713 6.29674C31.2218 6.08339 30.8334 5.94142 30.4286 5.87901C30.0239 5.81661 29.6108 5.83501 29.2132 5.93315C27.5473 6.32929 21.1525 9.5012 21.5479 11.1657Z" fill="white"/>
<path d="M5.58997 19.8174H24.8994V22.0456H5.58997V19.8174Z" fill="white"/>
<path d="M4.63459 10.4806L5.37735 12.4966C5.37735 12.4966 6.43842 12.2844 8.66597 12.6027C10.8935 12.9211 14.0605 14.7645 14.6221 16.8244C15.1838 18.8843 14.9758 21.5144 14.9758 21.5144L24.899 22.0449H26.3668C26.3668 22.0449 31.6885 21.3793 31.6885 16.8591C31.6885 12.8312 31.5732 10.5294 31.5732 10.5294L22.182 11.449L19.9183 11.9519C19.9183 11.9519 19.4882 11.3266 18.5333 11.1144C17.5783 10.9022 9.40802 9.6289 8.66597 9.94723C7.92393 10.2655 7.92393 11.1144 7.92393 11.1144C7.92393 11.1144 8.03004 11.0083 6.86285 11.0083C5.69567 11.0083 4.63459 10.4806 4.63459 10.4806Z" fill="white"/>
<path d="M28.8542 0.034061C30.4968 -0.271529 31.4963 1.57969 31.4963 1.57969L39.7451 19.0386L37.7305 19.9901L29.4817 2.53537C29.4817 2.53537 28.8656 1.5705 28.3626 1.73815C27.8597 1.9058 25.7036 2.39389 25.7036 2.39389L25.2841 1.13616C25.2841 1.13616 27.2294 0.336821 28.8542 0.034061Z" fill="white"/>
</svg>
