<svg width="50" height="17" viewBox="0 0 50 17" fill="none" xmlns="http://www.w3.org/2000/svg">
<path d="M0.429291 9.01984H0.750449C0.750449 9.01984 1.49603 5.60065 2.57358 5.00321C3.65114 4.40577 9.03566 3.4569 9.03566 3.4569C9.03566 3.4569 15.3723 0.473486 18.8477 0.177199C21.3348 -0.0358246 25.3752 -0.115303 27.0918 0.276682C28.8085 0.668667 34.4904 4.03055 34.4904 4.03055C34.4904 4.03055 49.5037 5.14216 49.5037 6.43328C49.5037 7.7244 49.4415 7.64979 48.8457 9.5151H49.5448C49.6655 9.5151 49.7813 9.56306 49.8667 9.64843C49.952 9.73381 50 9.8496 50 9.97034V11.9438C49.9993 12.0641 49.951 12.1791 49.8657 12.2639C49.7804 12.3487 49.665 12.3963 49.5448 12.3963H49.2825L48.4715 13.3387H46.8928C46.6952 14.2615 46.1871 15.0887 45.4532 15.682C44.7194 16.2754 43.8042 16.5991 42.8605 16.5991C41.9167 16.5991 41.0015 16.2754 40.2677 15.682C39.5338 15.0887 39.0257 14.2615 38.8282 13.3387H13.4064C13.2089 14.2615 12.7007 15.0887 11.9669 15.682C11.233 16.2754 10.3179 16.5991 9.37412 16.5991C8.43039 16.5991 7.51521 16.2754 6.78135 15.682C6.0475 15.0887 5.53938 14.2615 5.34181 13.3387H2.26C2.26 13.3387 0.755314 12.2574 0.749367 11.9011H0.428209C0.315472 11.9008 0.207368 11.8562 0.127247 11.7769C0.0471262 11.6976 0.00141953 11.5899 2.1339e-09 11.4772V9.4486C0.000143279 9.33483 0.0454351 9.22578 0.125927 9.14539C0.20642 9.065 0.31553 9.01984 0.429291 9.01984Z" fill="white"/>
<path d="M35.1992 3.74021C34.8981 3.76886 36.213 2.97138 40.1123 3.06059C44.0116 3.1498 45.8812 3.51475 45.8812 3.51475L45.9531 4.99781C45.9531 4.99781 44.1495 4.57392 40.979 4.2214C37.7609 3.86456 35.1992 3.74021 35.1992 3.74021Z" fill="white"/>
</svg>
