<svg width="50" height="14" viewBox="0 0 50 14" fill="none" xmlns="http://www.w3.org/2000/svg">
<path d="M-1.51873e-06 0H6.80811V2.66234L6.44097 3.84832C6.62983 3.8259 6.81986 3.81485 7.01004 3.81524C7.79269 3.81431 8.56294 4.01088 9.24963 4.38679C10.81 3.81953 12.6763 3.12852 14.5861 2.39341C16.6458 1.6001 17.7068 0.719799 19.7121 0.385323C21.0314 0.164788 22.2448 0.477823 22.2448 0.477823C22.2448 0.477823 22.347 4.89647 23.3909 4.89647H29.3527C31.0795 4.89647 30.8568 3.36498 30.8568 3.36498C32.7665 3.57608 34.6592 3.91976 36.5212 4.39353C37.0887 4.08206 37.7145 3.89186 38.3591 3.83496C39.0037 3.77807 39.6531 3.85572 40.2662 4.063C40.8793 4.27028 41.4427 4.60269 41.9209 5.03918C42.3991 5.47568 42.7816 6.00677 43.0442 6.59887C44.4889 7.15572 45.6754 7.65192 46.5768 8.09605C47.5522 8.31046 48.4572 8.55243 48.9773 8.79502C50.7139 9.60671 49.9251 10.7792 48.9161 10.7792H42.8515C42.4461 11.5072 41.8538 12.1136 41.136 12.5357C40.4181 12.9578 39.6007 13.1804 38.7682 13.1804C37.9357 13.1804 37.1182 12.9578 36.4004 12.5357C35.6825 12.1136 35.0903 11.5072 34.6849 10.7792H11.0939C10.5962 11.6725 9.81983 12.378 8.88362 12.7877C7.9474 13.1974 6.90289 13.2888 5.90989 13.0478C4.91689 12.8069 4.03008 12.2469 3.38514 11.4535C2.7402 10.6601 2.37265 9.67707 2.33872 8.65474L-1.51873e-06 7.67459V0Z" fill="white"/>
</svg>
