<svg width="51" height="21" viewBox="0 0 51 21" fill="none" xmlns="http://www.w3.org/2000/svg">
<path d="M21.4904 0.017787L25.7295 0.202871C25.9547 0.212703 26.1292 0.403217 26.1194 0.628398L26.0936 1.22024C26.0837 1.44542 25.8932 1.61999 25.668 1.61016L21.4289 1.42508C21.2037 1.41525 21.0292 1.22473 21.039 0.999552L21.0648 0.407711C21.0747 0.18253 21.2652 0.00795544 21.4904 0.017787Z" fill="white"/>
<path d="M49.272 10.1535C49.8616 9.66244 50.8677 11.6657 50.8677 13.4585C50.8653 14.5571 50.761 15.6531 50.5559 16.7323H48.3739V13.9262L49.0754 13.4763C49.2254 12.897 49.3032 12.3014 49.307 11.703C49.3009 10.6707 49.0259 10.359 49.272 10.1535Z" fill="white"/>
<path d="M28.7512 10.6268C28.8373 10.627 28.9226 10.6446 29.0017 10.6785C29.0736 10.7089 29.1382 10.7542 29.1911 10.8116C29.2382 10.8629 29.28 10.9189 29.3158 10.9786C29.3492 11.0348 29.3775 11.0939 29.4004 11.1551L29.9694 12.6712C30.0986 13.0157 30.0117 13.1851 29.7088 13.1796C29.406 13.174 29.1888 12.9992 29.0574 12.6551L28.4884 11.139C28.3585 10.7916 28.4461 10.6208 28.7512 10.6268Z" fill="white"/>
<path d="M31.6559 10.8033C31.6695 10.7771 31.6926 10.7571 31.7205 10.7476C31.758 10.7341 31.7968 10.7244 31.8363 10.7186C31.8935 10.7098 31.9515 10.7062 32.0094 10.708L32.3853 11.7102C32.3361 11.7096 32.2871 11.7065 32.2383 11.7008C32.1943 11.6958 32.1553 11.6896 32.1213 11.6835C32.0877 11.677 32.0553 11.6655 32.025 11.6495C31.995 11.6336 31.9699 11.6197 31.9499 11.6078C31.926 11.593 31.9049 11.5742 31.8875 11.5521C31.8663 11.5254 31.8496 11.5037 31.8374 11.4864C31.8214 11.4594 31.8078 11.4311 31.7967 11.4018C31.7795 11.3639 31.7667 11.3339 31.7583 11.311C31.75 11.2882 31.7366 11.2526 31.7182 11.2047C31.7132 11.1919 31.7099 11.1819 31.7071 11.1757C31.6882 11.1251 31.6743 11.0867 31.6659 11.0605C31.6576 11.0343 31.6475 11.0015 31.6381 10.9614C31.6294 10.9321 31.6269 10.9014 31.6308 10.8712C31.6363 10.8476 31.6447 10.8248 31.6559 10.8033Z" fill="white"/>
<path d="M0.885839 13.4451C1.11857 12.4257 1.42535 12.5153 1.42535 12.5153C1.46265 10.5071 2.05116 6.39085 3.00603 6.2834C4.85172 6.0785 9.48016 6.02617 9.48016 6.02617C9.48016 6.02617 14.0797 2.20337 15.4933 1.93223C18.3278 1.3877 27.6309 1.40162 30.3903 2.46283C32.2337 3.17216 38.2157 7.15363 38.2157 7.15363C38.2157 7.15363 46.8852 8.58175 48.0644 9.32838C48.6719 9.71367 49.178 11.9096 49.1707 13.8817H50.208V16.3532H49.0705C49.0477 16.7201 49.0304 16.94 49.0304 16.94H46.6068C46.4034 17.8903 45.8801 18.7421 45.1244 19.3531C44.3687 19.9642 43.4262 20.2975 42.4544 20.2975C41.4826 20.2975 40.5401 19.9642 39.7844 19.3531C39.0287 18.7421 38.5055 17.8903 38.302 16.94H14.1765C13.9731 17.8903 13.4498 18.7421 12.6941 19.3531C11.9384 19.9642 10.996 20.2975 10.0241 20.2975C9.05229 20.2975 8.10985 19.9642 7.35414 19.3531C6.59843 18.7421 6.07518 17.8903 5.87173 16.94L1.03505 16.3532C0.791188 16.3532 0.885839 13.4451 0.885839 13.4451ZM31.2555 11.8795C31.3701 11.9611 31.4962 12.0253 31.6297 12.0699C31.7718 12.1186 31.9184 12.1535 32.0673 12.174C32.2367 12.197 32.4074 12.2102 32.5784 12.2136L33.1391 13.7124L34.1657 13.7302L32.8495 10.2226L31.6291 10.2008C31.1892 10.193 30.9014 10.2725 30.7655 10.4391C30.6297 10.6058 30.6219 10.8502 30.7422 11.1724C30.7967 11.3204 30.8717 11.46 30.9649 11.5872C31.0465 11.6987 31.1445 11.7973 31.2555 11.8795ZM28.1604 12.8494C28.2387 12.9741 28.3322 13.0885 28.4388 13.1901C28.5514 13.2994 28.6782 13.393 28.8157 13.4685C28.9697 13.5509 29.1339 13.6127 29.304 13.6523C29.5031 13.6999 29.7068 13.7249 29.9115 13.7269C30.0986 13.7336 30.2857 13.7158 30.4682 13.674C30.5977 13.6464 30.7195 13.5903 30.8246 13.5097C30.9065 13.4417 30.967 13.3514 30.9988 13.2497C31.0321 13.1417 31.0418 13.0278 31.0272 12.9157C31.0104 12.7822 30.9771 12.6512 30.9281 12.5259L30.4877 11.3461C30.1763 10.5169 29.529 10.0938 28.5457 10.0767C27.5624 10.0596 27.2252 10.4653 27.534 11.2938L27.97 12.4597C28.02 12.5957 28.0838 12.7263 28.1604 12.8494ZM25.665 13.0988L25.8481 13.586L27.8737 13.6216L26.5569 10.114L25.5358 10.0962L26.6694 13.1167L25.665 13.0988ZM25.5224 13.5804L24.2062 10.0728L23.1845 10.055L24.5013 13.5626L25.5224 13.5804ZM20.8411 12.7275C20.9169 12.8487 21.0064 12.9608 21.1078 13.0615C21.2142 13.1687 21.3346 13.2611 21.4658 13.336C21.6135 13.4178 21.7713 13.4798 21.9351 13.5203C22.1286 13.5697 22.3273 13.5957 22.527 13.5977C22.7143 13.6047 22.9016 13.5859 23.0838 13.542C23.2124 13.5138 23.3329 13.4567 23.4362 13.375C23.5168 13.3046 23.5749 13.212 23.6032 13.1089C23.6345 13.0004 23.6424 12.8866 23.6266 12.7748C23.6073 12.6414 23.5727 12.5106 23.5236 12.3851L23.0877 11.2236C22.777 10.3948 22.1334 9.97164 21.1568 9.95419C20.9799 9.94816 20.803 9.96424 20.6301 10.0021C20.5063 10.0278 20.3893 10.0796 20.2871 10.1541C20.2059 10.2165 20.1452 10.3018 20.1128 10.3991C20.0791 10.5016 20.0685 10.6104 20.0817 10.7175C20.0983 10.8482 20.131 10.9763 20.1791 11.0989L20.2904 11.4007L21.2926 11.4185L21.1713 11.095C21.1473 11.0315 21.1289 10.9764 21.1156 10.928C21.101 10.8766 21.0912 10.8241 21.0861 10.771C21.0788 10.7231 21.0822 10.6743 21.0961 10.6279C21.1125 10.5879 21.1427 10.5551 21.1813 10.5355C21.2363 10.508 21.2976 10.4957 21.3589 10.4998C21.6558 10.5047 21.8685 10.68 21.9969 11.026L22.5649 12.5404C22.6948 12.8845 22.6118 13.0539 22.316 13.0487C22.2323 13.0484 22.1497 13.0294 22.0743 12.993C22.002 12.9573 21.9388 12.9055 21.8895 12.8416C21.8424 12.7823 21.8008 12.7187 21.7653 12.6517C21.7296 12.5833 21.6983 12.5127 21.6718 12.4402L21.5365 12.0794L20.5377 12.0616L20.649 12.3578C20.7025 12.4855 20.7667 12.6084 20.8411 12.7252V12.7275ZM17.3668 10.4364L18.4525 10.4553L18.8111 11.4101L18.0422 11.3968L18.2298 11.8979L18.9982 11.9112L19.4035 12.9908L18.3178 12.9719L18.501 13.4591L20.6078 13.4964L19.291 9.98871L17.1842 9.95196L17.3668 10.4364Z" fill="white"/>
</svg>
