<svg width="51" height="26" viewBox="0 0 51 26" fill="none" xmlns="http://www.w3.org/2000/svg">
<path d="M19.6146 25.3579C17.4 25.3579 15.6047 23.5626 15.6047 21.348C15.6047 19.1333 17.4 17.338 19.6146 17.338C21.8292 17.338 23.6245 19.1333 23.6245 21.348C23.6245 23.5626 21.8292 25.3579 19.6146 25.3579Z" fill="white"/>
<path d="M10.7508 25.3579C8.53619 25.3579 6.74088 23.5626 6.74088 21.348C6.74088 19.1333 8.53619 17.338 10.7508 17.338C12.9654 17.338 14.7607 19.1333 14.7607 21.348C14.7607 23.5626 12.9654 25.3579 10.7508 25.3579Z" fill="white"/>
<path d="M35.3643 22.2055L50.8677 22.0438V19.7405H50.1723L50.0002 14.8983C49.991 14.6308 49.894 14.3738 49.7242 14.1668C49.5545 13.9599 49.3214 13.8145 49.0608 13.7532L46.2831 8.72937C45.8843 8.37986 41.9541 8.33106 40.3855 8.32896C40.2707 8.32882 40.1569 8.35132 40.0508 8.39517C39.9447 8.43902 39.8482 8.50336 39.767 8.58451C39.6857 8.66566 39.6213 8.76203 39.5773 8.86811C39.5333 8.97419 39.5107 9.0879 39.5107 9.20273V15.8004H37.5779V1.10626H36.1552L34.8862 1.82994L11.3367 1.84306L9.74294 0.994476L1.62442 13.2368L0.867674 23.7053H6.25938V22.2055H35.3643Z" fill="white"/>
<path d="M40.0951 25.3579C37.8804 25.3579 36.0851 23.5626 36.0851 21.348C36.0851 19.1333 37.8804 17.338 40.0951 17.338C42.3097 17.338 44.105 19.1333 44.105 21.348C44.105 23.5626 42.3097 25.3579 40.0951 25.3579Z" fill="white"/>
<path d="M38.3207 0.474426H38.876V15.9353H38.3207V0.474426Z" fill="white"/>
<path d="M38.5002 0.886373L38.876 0.478085L38.1607 0V0.681179L38.5002 0.886373Z" fill="white"/>
<path d="M38.0047 6.34158H39.1938V16.5698H38.0047V6.34158Z" fill="white"/>
<path d="M38.6428 16.7156C37.7646 16.7156 37.0527 16.0037 37.0527 15.1255C37.0527 14.2473 37.7646 13.5354 38.6428 13.5354C39.521 13.5354 40.2329 14.2473 40.2329 15.1255C40.2329 16.0037 39.521 16.7156 38.6428 16.7156Z" fill="white"/>
</svg>
