<svg width="51" height="20" viewBox="0 0 51 20" fill="none" xmlns="http://www.w3.org/2000/svg">
<path d="M0.542817 11.1989C0.404011 9.95543 1.34567 7.08229 1.38999 7.00437C2.32709 5.23003 6.78972 4.13452 6.78972 4.13452C6.78972 4.13452 11.4694 1.70183 14.7401 0.832818C18.0108 -0.0361915 22.7087 -0.232974 24.9648 0.279451C27.2209 0.791876 35.0044 4.71761 35.0044 4.71761C35.0044 4.71761 42.6837 6.13206 45.1809 6.92315C46.8654 7.45604 49.4004 10.9691 49.4167 11.1969L49.4604 14.4986L50.1929 14.9952C50.1753 15.431 50.0189 15.4145 50.0189 15.4145H46.593C46.3549 16.5416 45.7425 17.5518 44.858 18.2765C43.9735 19.0012 42.8704 19.3966 41.7329 19.3966C40.5954 19.3966 39.4923 19.0012 38.6078 18.2765C37.7233 17.5518 37.1109 16.5416 36.8727 15.4145H12.8704C12.6323 16.5416 12.0199 17.5518 11.1354 18.2765C10.2509 19.0012 9.14778 19.3966 8.0103 19.3966C6.87281 19.3966 5.76975 19.0012 4.88523 18.2765C4.00071 17.5518 3.38827 16.5416 3.15015 15.4145L0.905145 14.8763C0.78168 14.7858 0.681438 14.6666 0.612836 14.5287C0.544234 14.3908 0.509274 14.2383 0.510886 14.0839L0.192871 11.7192C0.192871 11.187 0.542817 11.1989 0.542817 11.1989Z" fill="white"/>
</svg>
